# xmcd
# Track frame offsets:
# 182
# 14857
# 30410
# 46480
# 59080
# 73842
# 93157
# 109655
# 119957
# 134265
#
# Disc length: 1911 seconds
# Revision: 0
# Processed by: cddbd v1.5PL3 Copyright (c) Steve Scherf et al.
# Submitted via: VisiTrax 2.9.9.202 - For more info visit www.synapsa.com
#
DISCID=9707750a
DTITLE=Nitty Gritty Dirt Band - Best Of Nitty Gritty Dirt Band
DYEAR=1993
DGENRE=Blues
TTITLE0=Dance Little Jean
TTITLE1=Shot Full Of Love
TTITLE2=In For THe Night
TTITLE3=High School Yearbook
TTITLE4=For A Little While
TTITLE5=In Her Eyes
TTITLE6=Jealousy
TTITLE7=Melissa
TTITLE8=These Days
TTITLE9=Livin' Without You
EXTD=ID3G:   0
EXTT0=
EXTT1=
EXTT2=
EXTT3=
EXTT4=
EXTT5=
EXTT6=
EXTT7=
EXTT8=
EXTT9=
PLAYORDER=
